<?xml version="1.0" encoding="UTF-8"?>
<svg id="Layer_1" data-name="Layer 1" xmlns="http://www.w3.org/2000/svg" viewBox="0 0 1000 1000">
  <defs>
    <style>
      .cls-1 {
        fill: #fff;
      }

      .cls-2 {
        fill: #76b900;
      }
    </style>
  </defs>
  <rect class="cls-2" width="1000" height="1000"/>
  <g>
    <g>
      <path id="Eye_Mark" data-name="Eye Mark" class="cls-1" d="M190.91798,284.0193v-13.15616c1.27733-.09101,2.56739-.15909,3.882-.20026,35.98295-1.13097,59.5893,30.91772,59.5893,30.91772,0,0-25.49629,35.41313-52.83358,35.41313-3.93743,0-7.46089-.63473-10.63773-1.70078v-39.89429c14.0085,1.69211,16.82445,7.87956,25.24854,21.91743l18.73035-15.79247s-13.67217-17.93248-36.72061-17.93248c-2.50806,0-4.90461,.17724-7.25828,.42815m0-43.45973v19.6515c1.29159-.10212,2.58481-.18437,3.882-.23106,50.03975-1.68579,82.63929,41.0379,82.63929,41.0379,0,0-37.44555,45.53331-76.45492,45.53331-3.57419,0-6.92122-.33001-10.06637-.88646v12.14709c2.69009,.34192,5.47516,.54291,8.38293,.54291,36.30348,0,62.55567-18.53795,87.97837-40.4807,4.21209,3.37471,21.46874,11.58438,25.01757,15.18305-24.17309,20.23404-80.50322,36.54329-112.43795,36.54329-3.07715,0-6.03711-.186-8.94091-.46454v17.07139h137.9802V240.55957H190.91798Zm0,94.73337v10.37182c-33.5762-5.98646-42.8955-40.8891-42.8955-40.8891,0,0,16.1209-17.86205,42.8955-20.75637v11.37936c-.02059,0-.03404-.00551-.05227-.00551-14.04967-1.68741-25.02778,11.4403-25.02778,11.4403,0,0,6.15025,22.09942,25.08005,28.4595m-59.63526-32.02972s19.90006-29.36411,59.63526-32.40009v-10.65207c-44.01058,3.53221-82.12337,40.80684-82.12337,40.80684,0,0,21.58504,62.40452,82.12337,68.11795v-11.324c-44.42455-5.58918-59.63526-54.54862-59.63526-54.54862Z"/>
      <path id="NVIDIA" class="cls-1" d="M577.43769,268.08131l.00961,95.60141h26.99888v-95.59977l-27.00849-.00164Zm-212.39593-.12991v95.73132h27.23982v-72.69005l21.10221,.00723c6.99049,0,11.96892,1.73943,15.33742,5.33367,4.27073,4.551,6.01378,11.88713,6.01378,25.31316v42.03599l26.38812-.00481,.00481-52.88617c0-37.74966-24.06291-42.84034-47.60305-42.84034h-48.48311m255.869,.13311v95.59821h43.79218c23.33238,0,30.94755-3.88059,39.18345-12.58078,5.82211-6.10756,9.58313-19.51519,9.58313-34.16741,0-13.4372-3.18365-25.42541-8.73871-32.89063-10.00251-13.34982-24.41339-15.95938-45.92693-15.95938h-37.89312Zm26.78226,20.81594h11.60883c16.8415,0,27.73343,7.56302,27.73343,27.18644,0,19.62827-10.89194,27.19129-27.73343,27.19129h-11.60883v-54.37773Zm-109.18379-20.81594l-22.5332,75.76711-21.5918-75.76226-29.14554-.00484,30.83603,95.59821h38.91402l31.07828-95.59821h-27.55778Zm187.52424,95.59821h27.00365v-95.59336l-27.01005-.00484,.00641,95.59821Zm75.68852-95.56372l-37.70154,95.53079h26.62278l5.96476-16.88477h44.61821l5.64646,16.88477h28.90501l-37.98936-95.53875-36.06631,.00797Zm17.52628,17.42856l16.35552,44.75452h-33.22748l16.87196-44.75452Z"/>
    </g>
    <g>
      <path class="cls-1" d="M261.20481,760.02597c-45.0038,0-79.11806-12.16629-102.31575-36.49888-23.21121-24.33259-34.81681-59.98705-34.81681-106.97015v-17.71915c0-30.38533,5.26913-56.39999,15.82091-78.06423,10.55178-21.65749,25.67013-38.25526,45.36859-49.79331,19.68494-11.53129,43.03125-17.30032,70.03894-17.30032h4.64765c27.56162,0,50.90793,5.91089,70.03894,17.7259,19.13101,11.81502,32.77671,28.97348,40.93711,51.47538l-44.31476,15.6115c-9.28178-28.40603-31.64182-42.61242-67.09363-42.61242h-3.79648c-26.44024,0-46.90879,8.8562-61.39215,26.5821-14.49687,17.71915-21.72504,42.9029-21.72504,75.53099v19.83356c0,66.66804,29.38555,100.00544,88.18367,100.00544h3.79648c12.65943,0,24.54876-1.19569,35.65447-3.58706,11.11922-2.39138,20.75228-5.83658,28.91268-10.34236v-67.93128h-68.78245l5.4853-40.51153h109.70605v131.65401c-13.22687,10.40992-29.25044,18.49601-48.09773,24.26503-18.84728,5.76227-39.53201,8.64678-62.02715,8.64678h-4.22882Z"/>
      <path class="cls-1" d="M490.33102,754.54067v-253.60066h-91.57483v-41.77477h231.66621v41.77477h-91.57483v253.60066h-48.51655Z"/>
      <path class="cls-1" d="M773.4591,760.02597c-42.47732,0-74.88924-12.65943-97.26279-37.97829-22.36004-25.31886-33.54681-60.89902-33.54681-106.75398v-17.7259c0-29.53417,5.21509-55.06244,15.61825-76.58482,10.40316-21.51563,25.38641-38.11339,44.93625-49.79331,19.54983-11.6664,42.97721-17.50973,70.25511-17.50973h4.22882c28.41279,0,52.17793,6.40402,71.30893,19.19856,19.13101,12.80805,32.62809,30.87847,40.50477,54.22478l-44.72008,15.6115c-4.79626-15.75336-13.02422-27.49407-24.68386-35.23564-11.68667-7.73482-25.81875-11.59885-42.40976-11.59885h-3.79648c-25.8863,0-46.13869,8.57923-60.77067,25.73769-14.63198,17.15846-21.94121,42.1936-21.94121,75.10541v19.83356c0,33.75623,7.10657,59.07509,21.30621,75.95658,14.21315,16.87474,34.66819,25.31886,61.40566,25.31886h3.79648c17.14495,0,31.77692-3.80323,43.88242-11.39619,12.09198-7.59296,20.5226-18.98914,25.31886-34.17506l43.88242,16.87474c-8.1604,22.50865-22.02227,39.95084-41.5586,52.32654-19.56334,12.38246-43.39604,18.56356-71.5251,18.56356h-4.22882Z"/>
    </g>
  </g>
</svg>